<svg id="Layer_1" xmlns="http://www.w3.org/2000/svg" viewBox="0 0 289.9 67.5"><style>.st0{fill:#fff}</style><path class="st0" d="M103.7 22.9c-.9-1.2-2.1-2.1-3.6-2.8-1.5-.7-2.9-1-4.3-1-.7 0-1.4.1-2.2.2-.7.1-1.4.4-2 .7-.6.4-1.1.8-1.5 1.4-.4.6-.6 1.3-.6 2.2 0 .8.2 1.4.5 1.9s.8.9 1.4 1.3c.6.4 1.3.7 2.2 1 .8.3 1.8.6 2.8 1 1.5.5 3.1 1.1 4.7 1.7 1.6.6 3.1 1.4 4.5 2.4 1.3 1 2.5 2.3 3.3 3.8.9 1.5 1.3 3.4 1.3 5.6 0 2.6-.5 4.8-1.4 6.7s-2.2 3.4-3.8 4.6c-1.6 1.2-3.4 2.1-5.5 2.7-2.1.6-4.2.9-6.4.9-3.2 0-6.3-.6-9.3-1.7-3-1.1-5.5-2.7-7.5-4.8l7.1-7.2c1.1 1.3 2.5 2.5 4.3 3.4 1.8.9 3.6 1.4 5.3 1.4.8 0 1.6-.1 2.3-.3.8-.2 1.4-.4 2-.8.6-.4 1-.9 1.4-1.5.3-.6.5-1.4.5-2.3 0-.8-.2-1.6-.6-2.1-.4-.6-1-1.1-1.8-1.6s-1.7-.9-2.9-1.3-2.5-.8-3.9-1.3-2.8-1-4.2-1.6c-1.4-.6-2.6-1.4-3.7-2.4s-1.9-2.2-2.6-3.6c-.7-1.4-1-3.1-1-5.1 0-2.5.5-4.6 1.5-6.4 1-1.8 2.3-3.2 4-4.4 1.6-1.1 3.5-2 5.6-2.5 2.1-.5 4.1-.8 6.3-.8 2.5 0 5.1.5 7.7 1.4 2.6.9 4.9 2.3 6.9 4.1l-6.8 7.1zM119.9 56V11.3h10.9V56h-10.9zM181.8 56l.3-31.6h-.2L170.2 56h-7.6l-11.3-31.6h-.2l.3 31.6h-10.2V11.3h15.4L166.8 40h.3l9.7-28.7h15.6V56h-10.6zM237.7 43c0 2.4-.5 4.5-1.5 6.2-1 1.7-2.3 3-3.9 4s-3.4 1.7-5.5 2.2c-2 .4-4.1.7-6.3.7h-17.8V11.3h17.8c1.7 0 3.5.2 5.3.5 1.8.4 3.5 1 4.9 1.8s2.7 2 3.6 3.5c.9 1.5 1.4 3.3 1.4 5.6 0 2.5-.7 4.5-2 6.2-1.3 1.6-3.1 2.8-5.3 3.5v.1c1.3.2 2.5.6 3.6 1.2s2.1 1.3 2.9 2.2c.8.9 1.5 1.9 2 3.1.5 1.2.8 2.5.8 4zm-12.3-18.8c0-1.5-.6-2.6-1.7-3.3-1.2-.7-2.9-1-5.1-1h-5.3v9.2h5.8c2 0 3.6-.4 4.7-1.2 1-.9 1.6-2.1 1.6-3.7zm1.5 17.7c0-1.9-.7-3.1-2.1-3.9-1.4-.7-3.2-1.1-5.6-1.1h-6v10.2h6.1c.8 0 1.7-.1 2.6-.2.9-.1 1.7-.4 2.5-.8.7-.4 1.3-.9 1.8-1.6.4-.6.7-1.5.7-2.6zM277.9 56l-3.5-8.8h-17.3l-3.3 8.8h-11.7l18.8-44.7h10.5L289.9 56h-12zm-12-32.8l-5.7 15.3h11.2l-5.5-15.3z"/><g><path d="M25.2 17.9c-4.6 0-8.2 4-8.2 9 0 4.9 3.6 9 8.2 9h16.1c2.1 0 3.8 1.3 3.8 3.4 0 2.1-1.7 3.4-3.8 3.4H25.2c-8.8 0-15.6-6.9-15.6-15.7s6.9-15.7 15.6-15.7H59C52.8 4.5 43.7 0 33.6 0 15 0 0 15.4 0 33.9c0 5.4 1.3 8.6 3.5 15.3h38.4c4.6 0 8.5-3.7 8.5-8.7 0-5-3.9-9.2-8.5-9.2H25.8c-2.1 0-3.8-1.3-3.8-3.4 0-2.1 1.7-3.4 3.8-3.4h16.1c8.8 0 15.9 6.9 15.9 15.6S50.6 56 41.9 56H8.6L5.7 67.1l11.6-3.9v.1c4.8 2.7 10.4 4.3 16.3 4.3 18.5 0 33.6-15.9 33.6-34.4 0-5.1-1.2-8.5-3.2-15.2H25.2z" fill="#09a6e0"/></g></svg>